name C:\Users\antoi\Documents\MyRepositories\upper-imu-dc\Results\main_tracking\Case_93\kinematics.mot
datacolumns 43
datarows 7
range 3.74000000 3.86000000
endheader 
time	clav_prot	clav_elev	scapula_abduction	scapula_elevation	scapula_upward_rot	scapula_winging	plane_elv	shoulder_elv	axial_rot	TrapeziusScapula_M/activation	TrapeziusScapula_S/activation	TrapeziusScapula_I/activation	TrapeziusClavicle_S/activation	SerratusAnterior_I/activation	SerratusAnterior_M/activation	SerratusAnterior_S/activation	Rhomboideus_S/activation	Rhomboideus_I/activation	LevatorScapulae/activation	Coracobrachialis/activation	DeltoideusClavicle_A/activation	DeltoideusScapula_P/activation	DeltoideusScapula_M/activation	LatissimusDorsi_S/activation	LatissimusDorsi_M/activation	LatissimusDorsi_I/activation	PectoralisMajorClavicle_S/activation	PectoralisMajorThorax_I/activation	PectoralisMajorThorax_M/activation	TeresMajor/activation	Infraspinatus_I/activation	Infraspinatus_S/activation	PectoralisMinor/activation	TeresMinor/activation	Subscapularis_S/activation	Subscapularis_M/activation	Subscapularis_I/activation	Supraspinatus_P/activation	Supraspinatus_A/activation	TRIlong/activation	BIC_long/activation	BIC_brevis/activation	
          3.74000000	        -23.17358240	         -6.24487075	         -9.88813079	         -6.86583782	         18.25960405	          4.86929586	        -21.33169217	         43.16159392	         11.97640678	          0.01718908	          0.05626872	          0.01219910	          0.02843960	          0.05387579	          0.06554698	          0.01485295	          0.01726131	          0.01421754	          0.02266747	          0.01740955	          0.04946566	          0.01177457	          0.08267186	          0.01224190	          0.01146883	          0.01426360	          0.03043871	          0.01153280	          0.01773795	          0.01061841	          0.02301152	          0.02683215	          0.01136278	          0.01577014	          0.01544022	          0.01342302	          0.01190810	          0.02508423	          0.03806742	          0.01025804	          0.05808773	          0.01904473	
          3.76000000	        -23.17100847	         -6.21079375	         -9.85691692	         -6.85266157	         18.31433289	          4.84223520	        -20.89375483	         44.19914474	         11.17075783	          0.01715278	          0.05726852	          0.01213832	          0.02881136	          0.05490640	          0.06705400	          0.01483243	          0.01729108	          0.01420762	          0.02280160	          0.01743127	          0.05048492	          0.01178351	          0.08513777	          0.01217204	          0.01138703	          0.01414403	          0.03023665	          0.01139840	          0.01736883	          0.01057095	          0.02335508	          0.02706455	          0.01129453	          0.01575963	          0.01541848	          0.01338180	          0.01188937	          0.02564494	          0.03905886	          0.01029918	          0.05904814	          0.01904263	
          3.78000000	        -23.17026415	         -6.17307056	         -9.83250286	         -6.83574926	         18.36452687	          4.81476107	        -20.47328160	         45.24867016	         10.37121539	          0.01721925	          0.05802456	          0.01212216	          0.02919076	          0.05624441	          0.06833735	          0.01481058	          0.01734073	          0.01417636	          0.02302100	          0.01755937	          0.05191545	          0.01179001	          0.08737409	          0.01209157	          0.01128044	          0.01399926	          0.03023102	          0.01130058	          0.01710498	          0.01062483	          0.02371893	          0.02730276	          0.01126800	          0.01574510	          0.01542846	          0.01334862	          0.01187024	          0.02625419	          0.04037018	          0.01035476	          0.06050205	          0.01912275	
          3.80000000	        -23.17192832	         -6.13127809	         -9.80938766	         -6.81728886	         18.42068129	          4.78431202	        -20.07176311	         46.30801919	          9.56916619	          0.01716517	          0.05958807	          0.01209687	          0.02963538	          0.05742794	          0.07006037	          0.01480309	          0.01740605	          0.01420517	          0.02333769	          0.01770724	          0.05265859	          0.01178358	          0.08969172	          0.01205440	          0.01124525	          0.01390328	          0.03000594	          0.01127192	          0.01684688	          0.01065030	          0.02418783	          0.02758439	          0.01126392	          0.01574615	          0.01542458	          0.01330283	          0.01183970	          0.02681915	          0.04129036	          0.01036603	          0.06118347	          0.01920239	
          3.82000000	        -23.17355602	         -6.08054419	         -9.77924554	         -6.79537060	         18.49105970	          4.74686932	        -19.68747104	         47.37303207	          8.76012414	          0.01705646	          0.06030227	          0.01200568	          0.03000541	          0.05844261	          0.07140591	          0.01479107	          0.01745686	          0.01416409	          0.02362347	          0.01764157	          0.05385431	          0.01181463	          0.09143000	          0.01196133	          0.01119118	          0.01373900	          0.02970121	          0.01118264	          0.01632749	          0.01064210	          0.02448874	          0.02765058	          0.01121579	          0.01573833	          0.01539647	          0.01324326	          0.01181906	          0.02732899	          0.04246542	          0.01031993	          0.06220874	          0.01913261	
          3.84000000	        -23.16361964	         -6.02419681	         -9.72191413	         -6.77165368	         18.57494240	          4.70363010	        -19.32651386	         48.45201009	          7.94264183	          0.01695433	          0.06101290	          0.01204100	          0.03038850	          0.05925829	          0.07325191	          0.01484491	          0.01752994	          0.01423530	          0.02410549	          0.01758338	          0.05426685	          0.01181181	          0.09330170	          0.01200668	          0.01136287	          0.01371661	          0.02927865	          0.01121595	          0.01602542	          0.01064074	          0.02492519	          0.02787755	          0.01125219	          0.01574572	          0.01536241	          0.01319253	          0.01179077	          0.02771676	          0.04300282	          0.01034686	          0.06229838	          0.01903939	
          3.86000000	        -23.15251609	         -5.95882202	         -9.65631841	         -6.74406365	         18.67189378	          4.65363268	        -18.98341672	         49.54466768	          7.12142196	          0.01694886	          0.06176904	          0.01196441	          0.03066846	          0.05929402	          0.07412137	          0.01477670	          0.01758164	          0.01420030	          0.02438745	          0.01739834	          0.05408455	          0.01188516	          0.09484117	          0.01180538	          0.01095130	          0.01337391	          0.02847692	          0.01102395	          0.01536907	          0.01071982	          0.02513738	          0.02790714	          0.01116811	          0.01574991	          0.01532334	          0.01319228	          0.01181713	          0.02799245	          0.04332407	          0.01037749	          0.06196620	          0.01882305	
